<?xml version="1.0" standalone="no"?><!DOCTYPE svg PUBLIC "-//W3C//DTD SVG 1.1//EN" "http://www.w3.org/Graphics/SVG/1.1/DTD/svg11.dtd"><svg t="1682580416532" class="icon" viewBox="0 0 1024 1024" version="1.1" xmlns="http://www.w3.org/2000/svg" p-id="2775" xmlns:xlink="http://www.w3.org/1999/xlink" width="200" height="200"><path d="M422.4 6.4C192 6.4 0 192 0 428.8s192 422.4 422.4 422.4c230.4 0 422.4-192 422.4-422.4S659.2 6.4 422.4 6.4zM422.4 812.8c-211.2 0-384-172.8-384-384s172.8-384 384-384c211.2 0 384 172.8 384 384S633.6 812.8 422.4 812.8z" fill="#8C8C8C" p-id="2776"></path><path d="M1017.6 985.6l-230.4-230.4c-6.4-6.4-19.2-6.4-25.6 0-6.4 6.4-6.4 19.2 0 25.6l230.4 230.4c6.4 6.4 6.4 6.4 12.8 6.4 6.4 0 12.8 0 12.8-6.4C1024 1004.8 1024 992 1017.6 985.6z" fill="#8C8C8C" p-id="2777"></path></svg>